<svg width="22" height="22" viewBox="0 0 22 22" fill="none" xmlns="http://www.w3.org/2000/svg">
<path d="M21.5 20.53L16.69 15.6C17.9858 13.9482 18.6901 11.9094 18.69 9.81C18.722 7.36746 17.7803 5.01267 16.0728 3.2658C14.3653 1.51892 12.0326 0.523713 9.59 0.5C7.14995 0.529 4.82138 1.52621 3.11664 3.27221C1.4119 5.01821 0.47065 7.36996 0.499999 9.81C0.47065 12.25 1.4119 14.6018 3.11664 16.3478C4.82138 18.0938 7.14995 19.091 9.59 19.12C11.9001 19.1145 14.1185 18.215 15.78 16.61L20.55 21.5L21.5 20.53ZM1.84 9.81C1.79554 5.48219 5.26231 1.93491 9.59 1.88C13.9138 1.94036 17.3745 5.48605 17.33 9.81C17.38 14.1378 13.9177 17.6896 9.59 17.75C5.26071 17.6896 1.79551 14.1395 1.84 9.81Z" fill="#001E50"/>
</svg>
